<svg xmlns="http://www.w3.org/2000/svg" xmlns:xlink="http://www.w3.org/1999/xlink" id="Layer_1" x="0px" y="0px" viewBox="0 0 157.6 198.3" style="enable-background:new 0 0 157.6 198.3;" xml:space="preserve"><style type="text/css">	.st0{fill:#112373;}	.st1{fill:#04A3DD;}</style><g>	<path class="st0" d="M119.9,0H37.7C16.9,0,0,16.9,0,37.7v94.5c0,20.8,16.9,37.7,37.7,37.7h82.2c20.8,0,37.7-16.9,37.7-37.7V37.7  C157.6,16.9,140.7,0,119.9,0z M30.8,142.8c-6.1,0-11-4.9-11-11c0-6.1,4.9-11,11-11s11,4.9,11,11C41.8,137.9,36.9,142.8,30.8,142.8z   M71.9,76.2c0,5.2-4.2,9.3-9.3,9.3H25.8c-5.2,0-9.3-4.2-9.3-9.3V52.8c0-5.1,4.1-9.2,9.2-9.2h37.1c5.1,0,9.2,4.1,9.2,9.2V76.2z   M67.8,19.1c0-6.1,4.9-11,11-11c6.1,0,11,4.9,11,11c0,6.1-4.9,11-11,11C72.7,30.1,67.8,25.2,67.8,19.1z M126.8,142.8  c-6.1,0-11-4.9-11-11c0-6.1,4.9-11,11-11c6.1,0,11,4.9,11,11C137.8,137.9,132.9,142.8,126.8,142.8z M141.1,76.2  c0,5.2-4.2,9.3-9.3,9.3H94.9c-5.2,0-9.3-4.2-9.3-9.3V52.8c0-5.1,4.1-9.2,9.2-9.2h37.1c5.1,0,9.2,4.1,9.2,9.2V76.2z"></path>	<rect x="44.2" y="183.2" class="st1" width="72.4" height="15.1"></rect></g></svg>