<svg xmlns="http://www.w3.org/2000/svg" xmlns:xlink="http://www.w3.org/1999/xlink" id="Layer_1" x="0px" y="0px" viewBox="0 0 239.7 169.4" style="enable-background:new 0 0 239.7 169.4;" xml:space="preserve"><style type="text/css">	.st0{fill:#04A3DD;}	.st1{fill:#112373;}</style><g>	<circle class="st0" cx="37" cy="99.6" r="21.4"></circle>	<path class="st1" d="M55.1,117.3c-4.6,4.7-11,7.6-18.1,7.6s-13.5-2.9-18.1-7.6C7.6,123.6,0,135.7,0,149.6v14.8  c2.8,1.3,12.8,5.1,37,5.1c24.2,0,34.2-3.8,37-5.1v-14.8C74,135.7,66.3,123.6,55.1,117.3z"></path>	<circle class="st0" cx="119.8" cy="99.6" r="21.4"></circle>	<path class="st1" d="M137.9,117.3c-4.6,4.7-11,7.6-18.1,7.6s-13.5-2.9-18.1-7.6c-11.3,6.3-18.9,18.4-18.9,32.3v14.8  c2.8,1.3,12.8,5.1,37,5.1c24.2,0,34.2-3.8,37-5.1v-14.8C156.8,135.7,149.2,123.6,137.9,117.3z"></path>	<circle class="st0" cx="78.6" cy="60.5" r="21.4"></circle>	<path class="st1" d="M63,113c6.3,4.5,11.3,10.5,14.5,17.3c0.4,0,0.8,0,1.2,0c0.2,0,0.5,0,0.7,0c3.3-6.8,8.2-12.8,14.5-17.3  c-2.1-4-3.3-8.6-3.3-13.4c0-7.8,3.1-14.9,8.1-20.2c-0.6-0.4-1.3-0.8-2-1.2c-4.6,4.7-11,7.6-18.1,7.6c-7.1,0-13.5-2.9-18.1-7.6  c-0.8,0.4-1.5,0.9-2.3,1.4c4.9,5.2,7.9,12.3,7.9,20C66.2,104.4,65,109,63,113z"></path>	<circle class="st0" cx="161.5" cy="60.5" r="21.4"></circle>	<path class="st1" d="M145.8,113c6.3,4.5,11.3,10.5,14.5,17.3c0.4,0,0.8,0,1.2,0c0.2,0,0.5,0,0.7,0c3.3-6.8,8.2-12.8,14.5-17.3  c-2.1-4-3.3-8.6-3.3-13.4c0-7.8,3.1-14.9,8.1-20.2c-0.6-0.4-1.3-0.8-2-1.2c-4.6,4.7-11,7.6-18.1,7.6c-7.1,0-13.5-2.9-18.1-7.6  c-0.8,0.4-1.5,0.9-2.3,1.4c4.9,5.2,7.9,12.3,7.9,20C149.1,104.4,147.9,109,145.8,113z"></path>	<circle class="st0" cx="119.8" cy="21.4" r="21.4"></circle>	<path class="st1" d="M134.8,74.5c0.2-0.2,0.5-0.4,0.7-0.5c-2.1-4-3.3-8.6-3.3-13.4c0-7.7,3-14.8,8-20c-0.8-0.5-1.5-1-2.3-1.4  c-4.6,4.7-11,7.6-18.1,7.6c-7.1,0-13.5-2.9-18.1-7.6c-0.7,0.4-1.4,0.8-2,1.2c5,5.3,8.1,12.4,8.1,20.2c0,4.8-1.2,9.4-3.3,13.4  c0.2,0.1,0.4,0.3,0.5,0.4c4.3-2.5,9.3-4,14.7-4C125.3,70.4,130.4,71.9,134.8,74.5z"></path>	<circle class="st0" cx="202.7" cy="99.6" r="21.4"></circle>	<path class="st1" d="M220.7,117.3c-4.6,4.7-11,7.6-18.1,7.6s-13.5-2.9-18.1-7.6c-11.3,6.3-18.9,18.4-18.9,32.3v14.8  c2.8,1.3,12.8,5.1,37,5.1c24.2,0,34.2-3.8,37-5.1v-14.8C239.7,135.7,232,123.6,220.7,117.3z"></path></g></svg>