<svg xmlns="http://www.w3.org/2000/svg" xmlns:xlink="http://www.w3.org/1999/xlink" id="Layer_1" x="0px" y="0px" viewBox="0 0 339.1 333.7" style="enable-background:new 0 0 339.1 333.7;" xml:space="preserve"><style type="text/css">	.st0{fill:#04A3DD;}	.st1{fill:#112373;}</style><path class="st0" d="M208.8,202.4c-40.5,26.4-110.2,40-174.4,10.8l16.8,30.6c-10.7-2.6-18.8-6.1-25-10c-0.1-13.1,4.1-29.2,17.2-49.4 l-26.1-47.6C4.5,156.5-8.1,183.1,6.7,213.4L32.9,261c12.4,20.7,29.4,26.5,44.4,30.4c5.6,10.2,11.2,20.4,16.8,30.6 C144.1,309.9,189.1,262.9,208.8,202.4z"></path><path class="st1" d="M207.8,124.9c26.4,40.5,40,110.2,10.8,174.4l30.6-16.8c-2.6,10.7-6.1,18.8-10,25c-13.1,0.1-29.2-4.1-49.4-17.2 l-47.6,26.1c19.8,12.7,46.4,25.3,76.7,10.4l47.6-26.1c20.7-12.4,26.5-29.4,30.4-44.4c10.2-5.6,20.4-11.2,30.6-16.8 C315.3,189.6,268.3,144.6,207.8,124.9z"></path><path class="st0" d="M130.4,125.9c40.5-26.4,110.2-40,174.4-10.8L288,84.5c10.7,2.6,18.8,6.1,25,10c0.1,13.1-4.1,29.2-17.2,49.4 l26.1,47.6c12.7-19.8,25.3-46.4,10.4-76.7l-26.1-47.6c-12.4-20.7-29.4-26.5-44.4-30.4c-5.6-10.2-11.2-20.4-16.8-30.6 C195,18.4,150,65.3,130.4,125.9z"></path><path class="st1" d="M131.3,208.8c-26.4-40.5-40-110.2-10.8-174.4L90,51.1c2.6-10.7,6.1-18.8,10-25c13.1-0.1,29.2,4.1,49.4,17.2 L197,17.2C177.2,4.5,150.6-8.1,120.3,6.7L72.7,32.9C52,45.2,46.2,62.2,42.3,77.2C32.1,82.8,22,88.4,11.8,94 C23.8,144.1,70.8,189.1,131.3,208.8z"></path></svg>