<svg xmlns="http://www.w3.org/2000/svg" xmlns:xlink="http://www.w3.org/1999/xlink" id="Layer_1" x="0px" y="0px" viewBox="0 0 342.4 296.3" style="enable-background:new 0 0 342.4 296.3;" xml:space="preserve"><style type="text/css">	.st0{fill:#04A3DD;}	.st1{fill:#112373;}</style><g>	<path id="XMLID_2290_" class="st0" d="M71.6,38.8c0,0-16.9-3.5-16.4,15.8l-3.1,135c0,0,98.1,35.7,236.8,1.8  C288.8,191.5,129.4,171.5,71.6,38.8z"></path>	<path id="XMLID_2289_" class="st0" d="M84.9,58.7c0,0,60.8,101.5,175.8,121.1C260.7,179.8,169,168.7,84.9,58.7z"></path>	<path id="XMLID_2288_" class="st0" d="M251.8,38.6h26.3c6.5,0,11.8,5.2,11.9,11.7l0.4,31C290.6,81.3,282.7,50.1,251.8,38.6z"></path></g><path class="st1" d="M334.3,74.2c-1-8.4-5.8-23.9-26.3-35L308,37c-0.5-20.6-17.3-37-37.8-37H72.3C51.7,0,34.9,16.4,34.4,37l-0.1,2.2 C13.9,50.3,9.1,65.8,8.1,74.2C3.4,75.7,0,80.1,0,85.2v18.8c0,6.4,5.2,11.6,11.6,11.6c6.4,0,11.6-5.2,11.6-11.6V85.2 c0-4.9-3.1-9.1-7.4-10.8C18.4,61.3,27.3,56,34,53.9l-4.6,196.4c-0.2,6.4,5,11.7,11.4,11.7h12.5v17.2c0,1.5,0.8,2.8,2.1,3.5 c-14.6,1.4-23.1,3.1-23.1,4.9c0,4.9,62.2,8.8,138.9,8.8s138.9-3.9,138.9-8.8c0-1.8-8.5-3.5-23.1-4.9c1.2-0.7,2.1-2,2.1-3.5V262h12.5 c6.4,0,11.5-5.3,11.4-11.7l-4.6-196.4c6.7,2.1,15.6,7.4,18.3,20.5c-4.3,1.7-7.4,5.9-7.4,10.8v18.8c0,6.4,5.2,11.6,11.6,11.6 c6.4,0,11.6-5.2,11.6-11.6V85.2C342.4,80.1,339,75.7,334.3,74.2z M3.6,95.5c0.9,12.6,6.7,15.8,6.7,15.8C1.6,109.5,3.6,95.5,3.6,95.5 z M244,8.3c4.3,0,7.8,3.5,7.8,7.8c0,4.3-3.5,7.8-7.8,7.8s-7.8-3.5-7.8-7.8C236.2,11.8,239.7,8.3,244,8.3z M225.6,8.3 c4.3,0,7.8,3.5,7.8,7.8c0,4.3-3.5,7.8-7.8,7.8c-4.3,0-7.8-3.5-7.8-7.8C217.7,11.8,221.2,8.3,225.6,8.3z M136.2,9.4h70.1 c3.7,0,6.8,3,6.8,6.8s-3,6.8-6.8,6.8h-70.1c-3.7,0-6.8-3-6.8-6.8S132.4,9.4,136.2,9.4z M116.9,8.3c4.3,0,7.8,3.5,7.8,7.8 c0,4.3-3.5,7.8-7.8,7.8c-4.3,0-7.8-3.5-7.8-7.8C109,11.8,112.5,8.3,116.9,8.3z M98.4,8.3c4.3,0,7.8,3.5,7.8,7.8 c0,4.3-3.5,7.8-7.8,7.8s-7.8-3.5-7.8-7.8C90.6,11.8,94.1,8.3,98.4,8.3z M50.6,48.9c0.2-8.7,7.7-15.4,16.3-14.7 c88.7,7.1,175.4,2.4,210.2-0.1c8.7-0.6,16.1,6.2,16.2,14.9l2.2,146.3c0,0-124.4,34.1-248.9,0L50.6,48.9z M106,237.6 c-1.5,0-2.7-1.2-2.7-2.7c0-1.5,1.2-2.7,2.7-2.7h130.4c1.5,0,2.7,1.2,2.7,2.7c0,1.5-1.2,2.7-2.7,2.7H106z M225.6,243.8 c0,1.5-1.2,2.7-2.7,2.7H119.5c-1.5,0-2.7-1.2-2.7-2.7s1.2-2.7,2.7-2.7h103.4C224.4,241.2,225.6,242.4,225.6,243.8z M93.3,228.8 c-1.5,0-2.7-1.2-2.7-2.7c0-1.5,1.2-2.7,2.7-2.7h155.9c1.5,0,2.7,1.2,2.7,2.7c0,1.5-1.2,2.7-2.7,2.7H93.3z M37.3,224.9L37.3,224.9 c0-5.7,6.6-8.8,11-5.2c9.7,7.8,21,13.1,30.2,16.4c4.9,1.8,4.1,8.9-1.1,9.6c-8.2,1.1-15.5,0.9-21.5,0.2 C45.3,244.6,37.3,235.6,37.3,224.9z M171.2,278.7c-26.9,0-52,0.5-73.2,1.3c0.1-0.3,0.1-0.6,0.1-0.9V262v-9.6l1.4,9.8h143.6l1.3-9.8 v9.6v17.2c0,0.3,0,0.6,0.1,0.9C223.2,279.2,198.1,278.7,171.2,278.7z M305.1,224.9c0,10.7-8,19.7-18.6,21 c-6.1,0.7-13.3,0.9-21.5-0.2c-5.1-0.7-5.9-7.8-1.1-9.6c9.2-3.4,20.5-8.7,30.2-16.4C298.6,216.1,305.1,219.2,305.1,224.9L305.1,224.9 z M332.2,111.3c0,0,5.7-3.2,6.7-15.8C338.8,95.5,340.8,109.5,332.2,111.3z"></path></svg>